# xmcd
#
# Track frame offsets:
#	150
#	15466
#	30821
#	47048
#	60199
#	73435
#	90206
#	103144
#	115281
#	128819
#	143770
#	160044
#
# Disc length: 2321 seconds
#
# Revision: 0
# Processed by: cddbd v1.5.1PL0 Copyright (c) Steve Scherf et al.
# Submitted via: EasyCDDAExtractor 4.6.9.1
#
DISCID=90090f0c
DTITLE=Lost Highway - Bluegrass The Way You Like It
DYEAR=2004
DGENRE=Bluegrass
TTITLE0=Your Love Is Like A Flower
TTITLE1=Rank Stranger
TTITLE2=No Mother Or Dad
TTITLE3=Ghost Stories
TTITLE4=Paint The Town
TTITLE5=The Angels Are Singing (In Heaven Tonight)
TTITLE6=I Can't Go On Loving You
TTITLE7=Reynard In The Canebreak
TTITLE8=Who Will Sing For Me
TTITLE9=Over The Hill To The Poorhouse
TTITLE10=Don't Step Over An Old Love
TTITLE11=What Would You Give (In Exchange For Your Soul)
EXTD=
EXTT0=
EXTT1=
EXTT2=
EXTT3=
EXTT4=
EXTT5=
EXTT6=
EXTT7=
EXTT8=
EXTT9=
EXTT10=
EXTT11=
PLAYORDER=
